<svg width="100" height="100" viewBox="0 0 100 100" fill="none" xmlns="http://www.w3.org/2000/svg">
<path d="M1.36682 2.34326H98.8285V97.2659H1.36682V2.34326Z" fill="#C88FFF"/>
<path d="M8.79065 9.96411H91.21V89.6456H8.79065V9.96411Z" fill="#312963"/>
<path opacity="0.302" d="M75.7812 42.1875L59.5703 45.3125L40.4297 29.6875L31.8359 30.6641L18.1641 69.9219L44.3359 89.6484H91.2109V54.4922L75.7812 42.1875Z" fill="black"/>
<path opacity="0.302" d="M8.79065 9.96118H91.21V12.6952H8.79065V9.96118Z" fill="black"/>
<path d="M29.3543 58.5066L25.8935 69.9031H18.3158L31.2039 29.6875H40.5717L53.6386 69.9031H45.7627L42.123 58.5066H29.3543ZM40.8701 52.9576L37.7078 43.0529C36.9322 40.6066 36.2758 37.8619 35.6791 35.5348H35.5597C34.9631 37.8619 34.3664 40.666 33.6504 43.0529L30.5476 52.9576H40.8701ZM61.7527 57.4326C61.9316 62.6834 66.0486 64.9506 70.7027 64.9506C74.1037 64.9506 76.55 64.4734 78.7578 63.6379L79.8318 68.7096C77.3258 69.724 73.865 70.4996 69.6883 70.4996C60.2607 70.4996 54.7117 64.7119 54.7117 55.8217C54.7117 47.7666 59.6045 40.1887 68.9125 40.1887C78.34 40.1887 81.4426 47.9453 81.4426 54.3299C81.4426 55.7022 81.3232 56.7762 81.2039 57.4326H61.7527ZM74.5215 52.3012C74.5812 49.616 73.3877 45.2008 68.4951 45.2008C63.9603 45.2008 62.0511 49.318 61.7527 52.3012H74.5215Z" fill="#C88FFF"/>
</svg>
