<svg width="100" height="100" viewBox="0 0 100 100" fill="none" xmlns="http://www.w3.org/2000/svg">
<path d="M1.36682 2.34326H98.8285V97.2659H1.36682V2.34326Z" fill="#FFAA2B"/>
<path d="M8.79065 9.96411H91.21V89.6456H8.79065V9.96411Z" fill="#3B3323"/>
<path opacity="0.302" d="M71.0938 28.9063C71.2885 29.036 65.625 34.961 65.625 34.961L72.9272 40.7141L66.211 45.7032L49.4141 29.4922L41.4063 31.4454L36.3281 47.6563L27.1485 69.7266L55.2735 89.6485H91.211V45.1172C91.211 45.1172 70.899 28.7766 71.0938 28.9063ZM8.79065 9.96118H91.21V12.6952H8.79065V9.96118Z" fill="black"/>
<path d="M38.2826 58.3111L34.8219 69.7076H27.2441L40.1322 29.492H49.5L62.5672 69.7076H54.691L51.0514 58.3111H38.2826ZM49.7984 52.7621L46.6361 42.8574C45.8605 40.4111 45.2041 37.6664 44.6074 35.3393H44.4881C43.8914 37.6664 43.2947 40.4705 42.5787 42.8574L39.476 52.7621H49.7984ZM73.3064 32.5348C73.3064 34.7424 71.6955 36.4729 69.1297 36.4729C66.6834 36.4729 65.0725 34.7426 65.0725 32.5348C65.0725 30.2674 66.7432 28.5371 69.1895 28.5371C71.6955 28.5371 73.2467 30.2674 73.3064 32.5348ZM65.4902 69.7074V40.6494H72.8889V69.7074H65.4902Z" fill="#FFAA2B"/>
</svg>
