<svg width="50" height="49" viewBox="0 0 50 49" fill="none" xmlns="http://www.w3.org/2000/svg">
<path d="M35.4163 4.04206C38.1766 4.05006 40.8216 5.11745 42.7734 7.01111C44.7253 8.90477 45.8255 11.4708 45.8337 14.1488V34.3603C45.8255 37.0383 44.7253 39.6043 42.7734 41.498C40.8216 43.3917 38.1766 44.459 35.4163 44.467H14.5837C11.8234 44.459 9.17845 43.3917 7.22659 41.498C5.27473 39.6043 4.17454 37.0383 4.16629 34.3603V14.1488C4.17454 11.4708 5.27473 8.90477 7.22659 7.01111C9.17845 5.11745 11.8234 4.05006 14.5837 4.04206H35.4163ZM35.4163 0H14.5837C6.5625 0 0 6.36682 0 14.1488V34.3603C0 42.1423 6.5625 48.5091 14.5837 48.5091H35.4163C43.4375 48.5091 50 42.1423 50 34.3603V14.1488C50 6.36682 43.4375 0 35.4163 0Z" fill="black"/>
<path d="M38.5413 14.1488C37.9232 14.1488 37.319 13.971 36.8051 13.6379C36.2912 13.3048 35.8907 12.8312 35.6542 12.2773C35.4177 11.7233 35.3558 11.1137 35.4763 10.5255C35.5969 9.93743 35.8946 9.39721 36.3316 8.97321C36.7686 8.5492 37.3255 8.26045 37.9316 8.14346C38.5378 8.02648 39.1662 8.08652 39.7372 8.31599C40.3082 8.54546 40.7963 8.93406 41.1396 9.43264C41.483 9.93122 41.6663 10.5174 41.6663 11.117C41.6672 11.5154 41.587 11.91 41.4302 12.2783C41.2735 12.6465 41.0433 12.9811 40.753 13.2628C40.4626 13.5445 40.1178 13.7677 39.7382 13.9198C39.3587 14.0719 38.9519 14.1497 38.5413 14.1488ZM25 16.1693C26.6483 16.1693 28.2595 16.6435 29.63 17.5319C31.0004 18.4204 32.0686 19.6831 32.6993 21.1605C33.3301 22.6378 33.4951 24.2635 33.1736 25.8319C32.852 27.4003 32.0583 28.8409 30.8928 29.9717C29.7273 31.1024 28.2424 31.8724 26.6258 32.1844C25.0092 32.4964 23.3336 32.3363 21.8108 31.7243C20.288 31.1124 18.9865 30.0761 18.0708 28.7464C17.1551 27.4168 16.6663 25.8536 16.6663 24.2545C16.6687 22.1109 17.5474 20.0557 19.1098 18.54C20.6722 17.0242 22.7905 16.1716 25 16.1693ZM25 12.1273C22.5277 12.1273 20.111 12.8385 18.0554 14.1711C15.9998 15.5036 14.3976 17.3977 13.4515 19.6136C12.5054 21.8296 12.2579 24.268 12.7402 26.6205C13.2225 28.9729 14.413 31.1338 16.1612 32.8298C17.9093 34.5259 20.1366 35.6809 22.5614 36.1488C24.9861 36.6167 27.4995 36.3766 29.7835 35.4587C32.0676 34.5408 34.0199 32.9864 35.3934 30.9921C36.7669 28.9978 37.5 26.6531 37.5 24.2545C37.5 21.0382 36.183 17.9536 33.8388 15.6793C31.4946 13.405 28.3152 12.1273 25 12.1273Z" fill="black"/>
</svg>
